<svg width="57" height="57" viewBox="0 0 57 57" fill="none" xmlns="http://www.w3.org/2000/svg">
<path fill-rule="evenodd" clip-rule="evenodd" d="M5.71001e-07 8.43885C-0.000202477 7.17226 0.284755 5.92187 0.833737 4.78043C1.38272 3.63899 2.18164 2.63579 3.17124 1.84524C4.16083 1.0547 5.31571 0.497089 6.55022 0.21378C7.78472 -0.0695298 9.06717 -0.071271 10.3024 0.208685C11.5377 0.488641 12.6941 1.04311 13.6858 1.83097C14.6776 2.61882 15.4792 3.61985 16.0313 4.75979C16.5834 5.89973 16.8717 7.14935 16.875 8.41594C16.8782 9.68253 16.5962 10.9336 16.05 12.0764L21.0938 17.1164L22.1588 16.0514C22.9422 15.2678 23.8724 14.6463 24.8961 14.2223C25.9198 13.7983 27.017 13.58 28.125 13.58C29.233 13.58 30.3302 13.7983 31.3539 14.2223C32.3776 14.6463 33.3078 15.2678 34.0912 16.0514L35.1562 17.1164L40.1963 12.0764C39.338 10.2803 39.1424 8.23875 39.6439 6.31244C40.1455 4.38613 41.3119 2.69917 42.937 1.54976C44.5622 0.40035 46.5413 -0.137493 48.5247 0.0313087C50.5081 0.20011 52.3679 1.06468 53.7754 2.4722C55.1829 3.87972 56.0475 5.73954 56.2163 7.7229C56.3851 9.70625 55.8473 11.6854 54.6978 13.3106C53.5484 14.9357 51.8615 16.1021 49.9352 16.6037C48.0089 17.1052 45.9673 16.9096 44.1712 16.0514L39.135 21.0951L40.2 22.1601C40.9835 22.9436 41.605 23.8737 42.029 24.8974C42.4531 25.9211 42.6713 27.0183 42.6713 28.1264C42.6713 29.2344 42.4531 30.3316 42.029 31.3553C41.605 32.379 40.9835 33.3091 40.2 34.0926L39.135 35.1576L44.175 40.1976C45.971 39.3394 48.0126 39.1437 49.9389 39.6453C51.8652 40.1468 53.5522 41.3133 54.7016 42.9384C55.851 44.5635 56.3888 46.5427 56.22 48.5261C56.0512 50.5094 55.1867 52.3692 53.7792 53.7767C52.3716 55.1843 50.5118 56.0488 48.5285 56.2176C46.5451 56.3864 44.5659 55.8486 42.9408 54.6992C41.3157 53.5498 40.1492 51.8628 39.6477 49.9365C39.1461 48.0102 39.3418 45.9686 40.2 44.1726L35.1562 39.1363L34.0912 40.2014C33.3078 40.9849 32.3776 41.6064 31.3539 42.0304C30.3302 42.4544 29.233 42.6727 28.125 42.6727C27.017 42.6727 25.9198 42.4544 24.8961 42.0304C23.8724 41.6064 22.9422 40.9849 22.1588 40.2014L21.0938 39.1363L16.0538 44.1763C16.912 45.9724 17.1076 48.014 16.6061 49.9403C16.1045 51.8666 14.9381 53.5535 13.313 54.7029C11.6878 55.8524 9.70865 56.3902 7.7253 56.2214C5.74194 56.0526 3.88212 55.188 2.4746 53.7805C1.06708 52.373 0.202508 50.5132 0.0337065 48.5298C-0.135095 46.5464 0.402748 44.5673 1.55216 42.9421C2.70157 41.317 4.38853 40.1506 6.31484 39.649C8.24115 39.1475 10.2827 39.3431 12.0788 40.2014L17.115 35.1576L16.05 34.0926C15.2665 33.3091 14.645 32.379 14.221 31.3553C13.7969 30.3316 13.5787 29.2344 13.5787 28.1264C13.5787 27.0183 13.7969 25.9211 14.221 24.8974C14.645 23.8737 15.2665 22.9436 16.05 22.1601L17.115 21.0951L12.075 16.0551C10.7886 16.6697 9.36745 16.9484 7.9442 16.865C6.52096 16.7817 5.14204 16.339 3.93619 15.5785C2.73033 14.8179 1.73687 13.7641 1.04854 12.5156C0.360217 11.2671 -0.000523869 9.86454 5.71001e-07 8.43885ZM8.4375 5.62635C8.06816 5.62635 7.70243 5.6991 7.3612 5.84044C7.01998 5.98178 6.70993 6.18895 6.44876 6.45011C6.1876 6.71128 5.98043 7.02133 5.83909 7.36256C5.69775 7.70378 5.625 8.06951 5.625 8.43885C5.625 8.8082 5.69775 9.17392 5.83909 9.51515C5.98043 9.85638 6.1876 10.1664 6.44876 10.4276C6.70993 10.6888 7.01998 10.8959 7.3612 11.0373C7.70243 11.1786 8.06816 11.2514 8.4375 11.2514C9.18342 11.2514 9.89879 10.955 10.4262 10.4276C10.9537 9.90014 11.25 9.18477 11.25 8.43885C11.25 7.69293 10.9537 6.97756 10.4262 6.45011C9.89879 5.92267 9.18342 5.62635 8.4375 5.62635ZM8.4375 45.0014C7.69158 45.0014 6.97621 45.2977 6.44876 45.8251C5.92132 46.3526 5.625 47.0679 5.625 47.8139C5.625 48.5598 5.92132 49.2751 6.44876 49.8026C6.97621 50.33 7.69158 50.6264 8.4375 50.6264C9.18342 50.6264 9.89879 50.33 10.4262 49.8026C10.9537 49.2751 11.25 48.5598 11.25 47.8139C11.25 47.0679 10.9537 46.3526 10.4262 45.8251C9.89879 45.2977 9.18342 45.0014 8.4375 45.0014ZM45 47.8139C45 47.0679 45.2963 46.3526 45.8238 45.8251C46.3512 45.2977 47.0666 45.0014 47.8125 45.0014C48.5584 45.0014 49.2738 45.2977 49.8012 45.8251C50.3287 46.3526 50.625 47.0679 50.625 47.8139C50.625 48.5598 50.3287 49.2751 49.8012 49.8026C49.2738 50.33 48.5584 50.6264 47.8125 50.6264C47.0666 50.6264 46.3512 50.33 45.8238 49.8026C45.2963 49.2751 45 48.5598 45 47.8139ZM47.8125 5.62635C47.4432 5.62635 47.0774 5.6991 46.7362 5.84044C46.395 5.98178 46.0849 6.18895 45.8238 6.45011C45.5626 6.71128 45.3554 7.02133 45.2141 7.36256C45.0728 7.70378 45 8.06951 45 8.43885C45 8.8082 45.0728 9.17392 45.2141 9.51515C45.3554 9.85638 45.5626 10.1664 45.8238 10.4276C46.0849 10.6888 46.395 10.8959 46.7362 11.0373C47.0774 11.1786 47.4432 11.2514 47.8125 11.2514C48.5584 11.2514 49.2738 10.955 49.8012 10.4276C50.3287 9.90014 50.625 9.18477 50.625 8.43885C50.625 7.69293 50.3287 6.97756 49.8012 6.45011C49.2738 5.92267 48.5584 5.62635 47.8125 5.62635ZM26.1375 20.0301C26.6648 19.5034 27.3797 19.2076 28.125 19.2076C28.8703 19.2076 29.5852 19.5034 30.1125 20.0301L36.225 26.1388C36.7517 26.6662 37.0475 27.381 37.0475 28.1264C37.0475 28.8717 36.7517 29.5865 36.225 30.1138L30.1125 36.2263C29.5852 36.753 28.8703 37.0489 28.125 37.0489C27.3797 37.0489 26.6648 36.753 26.1375 36.2263L20.025 30.1138C19.4983 29.5865 19.2025 28.8717 19.2025 28.1264C19.2025 27.381 19.4983 26.6662 20.025 26.1388L26.1375 20.0301Z" fill="black"/>
</svg>
