<svg width="73" height="73" viewBox="0 0 73 73" fill="none" xmlns="http://www.w3.org/2000/svg">
<path fill-rule="evenodd" clip-rule="evenodd" d="M60.5196 12.1039V60.5196H12.1039V12.1039H60.5196ZM32.4819 24.2078H27.7667L18.8148 48.4157H23.0687L24.7588 43.6832H35.4749L37.1287 48.4157H41.6389L32.4819 24.2078ZM49.1899 24.2078H44.9531V48.4157H49.1899V24.2078ZM30.0886 28.2693L34.3088 40.3463H25.9355L30.0886 28.2693ZM64.5543 48.4157H72.6235V56.485H64.5543V48.4157ZM16.1386 64.5543H24.2078V72.6235H16.1386V64.5543ZM32.2771 64.5543H40.3464V72.6235H32.2771V64.5543ZM16.1386 0H24.2078V8.06928H16.1386V0ZM48.4157 64.5543H56.485V72.6235H48.4157V64.5543ZM32.2771 0H40.3464V8.06928H32.2771V0ZM48.4157 0H56.485V8.06928H48.4157V0ZM64.5543 32.2771H72.6235V40.3464H64.5543V32.2771ZM0 48.4157H8.06928V56.485H0V48.4157ZM64.5543 16.1386H72.6235V24.2078H64.5543V16.1386ZM0 32.2771H8.06928V40.3464H0V32.2771ZM0 16.1386H8.06928V24.2078H0V16.1386Z" fill="black"/>
</svg>
