<svg width="58" height="58" viewBox="0 0 58 58" fill="none" xmlns="http://www.w3.org/2000/svg">
<g clip-path="url(#clip0_902_1035)">
<path d="M14.5 16.3125H7.25C6.28859 16.3125 5.36656 16.6944 4.68674 17.3742C4.00692 18.0541 3.625 18.9761 3.625 19.9375V41.6875H7.25V32.625H14.5V41.6875H18.125V19.9375C18.125 18.9761 17.7431 18.0541 17.0633 17.3742C16.3834 16.6944 15.4614 16.3125 14.5 16.3125ZM7.25 29V19.9375H14.5V29H7.25Z" fill="#3D3D3D"/>
<path d="M39.875 19.9375H45.3125V38.0625H39.875V41.6875H54.375V38.0625H48.9375V19.9375H54.375V16.3125H39.875V19.9375Z" fill="#3D3D3D"/>
<path d="M25.375 41.6875H21.75V16.3125H32.625C33.5864 16.3125 34.5084 16.6944 35.1883 17.3742C35.8681 18.0541 36.25 18.9761 36.25 19.9375V29C36.25 29.9614 35.8681 30.8834 35.1883 31.5633C34.5084 32.2431 33.5864 32.625 32.625 32.625H25.375V41.6875ZM25.375 29H32.625V19.9375H25.375V29Z" fill="#3D3D3D"/>
</g>
<defs>
<clipPath id="clip0_902_1035">
<rect width="58" height="58" fill="white"/>
</clipPath>
</defs>
</svg>
