<svg width="1440" height="621" viewBox="0 0 1440 621" fill="none" xmlns="http://www.w3.org/2000/svg">
<g clip-path="url(#clip0_785_1204)">
<rect width="1440" height="621" fill="white"/>
<g opacity="0.8">
<g opacity="0.1">
<rect x="420" y="10" width="60" height="60" stroke="#3C52A4" stroke-width="1.44"/>
<rect x="480" y="10" width="60" height="60" stroke="#3C52A4" stroke-width="1.44"/>
<rect x="540" y="10" width="60" height="60" stroke="#3C52A4" stroke-width="1.44"/>
<rect x="600" y="10" width="60" height="60" stroke="#3C52A4" stroke-width="1.44"/>
<rect x="660" y="10" width="60" height="60" stroke="#3C52A4" stroke-width="1.44"/>
<rect x="720" y="10" width="60" height="60" stroke="#3C52A4" stroke-width="1.44"/>
<rect x="780" y="10" width="60" height="60" stroke="#3C52A4" stroke-width="1.44"/>
<rect x="840" y="10" width="60" height="60" stroke="#3C52A4" stroke-width="1.44"/>
<rect x="900" y="10" width="60" height="60" stroke="#3C52A4" stroke-width="1.44"/>
<rect x="960" y="10" width="60" height="60" stroke="#3C52A4" stroke-width="1.44"/>
<rect x="420" y="70" width="60" height="60" stroke="#3C52A4" stroke-width="1.44"/>
<rect x="480" y="70" width="60" height="60" stroke="#3C52A4" stroke-width="1.44"/>
<rect x="540" y="70" width="60" height="60" stroke="#3C52A4" stroke-width="1.44"/>
<rect x="600" y="70" width="60" height="60" stroke="#3C52A4" stroke-width="1.44"/>
<rect x="660" y="70" width="60" height="60" stroke="#3C52A4" stroke-width="1.44"/>
<rect x="720" y="70" width="60" height="60" stroke="#3C52A4" stroke-width="1.44"/>
<rect x="780" y="70" width="60" height="60" stroke="#3C52A4" stroke-width="1.44"/>
<rect x="840" y="70" width="60" height="60" stroke="#3C52A4" stroke-width="1.44"/>
<rect x="900" y="70" width="60" height="60" stroke="#3C52A4" stroke-width="1.44"/>
<rect x="960" y="70" width="60" height="60" stroke="#3C52A4" stroke-width="1.44"/>
<rect x="420" y="130" width="60" height="60" stroke="#3C52A4" stroke-width="1.44"/>
<rect x="480" y="130" width="60" height="60" stroke="#3C52A4" stroke-width="1.44"/>
<rect x="540" y="130" width="60" height="60" stroke="#3C52A4" stroke-width="1.44"/>
<rect x="600" y="130" width="60" height="60" stroke="#3C52A4" stroke-width="1.44"/>
<rect x="660" y="130" width="60" height="60" stroke="#3C52A4" stroke-width="1.44"/>
<rect x="720" y="130" width="60" height="60" stroke="#3C52A4" stroke-width="1.44"/>
<rect x="780" y="130" width="60" height="60" stroke="#3C52A4" stroke-width="1.44"/>
<rect x="840" y="130" width="60" height="60" stroke="#3C52A4" stroke-width="1.44"/>
<rect x="900" y="130" width="60" height="60" stroke="#3C52A4" stroke-width="1.44"/>
<rect x="960" y="130" width="60" height="60" stroke="#3C52A4" stroke-width="1.44"/>
<rect x="420" y="190" width="60" height="60" stroke="#3C52A4" stroke-width="1.44"/>
<rect x="480" y="190" width="60" height="60" stroke="#3C52A4" stroke-width="1.44"/>
<rect x="540" y="190" width="60" height="60" stroke="#3C52A4" stroke-width="1.44"/>
<rect x="600" y="190" width="60" height="60" stroke="#3C52A4" stroke-width="1.44"/>
<rect x="660" y="190" width="60" height="60" stroke="#3C52A4" stroke-width="1.44"/>
<rect x="720" y="190" width="60" height="60" stroke="#3C52A4" stroke-width="1.44"/>
<rect x="780" y="190" width="60" height="60" stroke="#3C52A4" stroke-width="1.44"/>
<rect x="840" y="190" width="60" height="60" stroke="#3C52A4" stroke-width="1.44"/>
<rect x="900" y="190" width="60" height="60" stroke="#3C52A4" stroke-width="1.44"/>
<rect x="960" y="190" width="60" height="60" stroke="#3C52A4" stroke-width="1.44"/>
<rect x="420" y="250" width="60" height="60" stroke="#3C52A4" stroke-width="1.44"/>
<rect x="480" y="250" width="60" height="60" stroke="#3C52A4" stroke-width="1.44"/>
<rect x="540" y="250" width="60" height="60" stroke="#3C52A4" stroke-width="1.44"/>
<rect x="600" y="250" width="60" height="60" stroke="#3C52A4" stroke-width="1.44"/>
<rect x="660" y="250" width="60" height="60" stroke="#3C52A4" stroke-width="1.44"/>
<rect x="720" y="250" width="60" height="60" stroke="#3C52A4" stroke-width="1.44"/>
<rect x="780" y="250" width="60" height="60" stroke="#3C52A4" stroke-width="1.44"/>
<rect x="840" y="250" width="60" height="60" stroke="#3C52A4" stroke-width="1.44"/>
<rect x="900" y="250" width="60" height="60" stroke="#3C52A4" stroke-width="1.44"/>
<rect x="960" y="250" width="60" height="60" stroke="#3C52A4" stroke-width="1.44"/>
<rect x="420" y="310" width="60" height="60" stroke="#3C52A4" stroke-width="1.44"/>
<rect x="480" y="310" width="60" height="60" stroke="#3C52A4" stroke-width="1.44"/>
<rect x="540" y="310" width="60" height="60" stroke="#3C52A4" stroke-width="1.44"/>
<rect x="600" y="310" width="60" height="60" stroke="#3C52A4" stroke-width="1.44"/>
<rect x="660" y="310" width="60" height="60" stroke="#3C52A4" stroke-width="1.44"/>
<rect x="720" y="310" width="60" height="60" stroke="#3C52A4" stroke-width="1.44"/>
<rect x="780" y="310" width="60" height="60" stroke="#3C52A4" stroke-width="1.44"/>
<rect x="840" y="310" width="60" height="60" stroke="#3C52A4" stroke-width="1.44"/>
<rect x="900" y="310" width="60" height="60" stroke="#3C52A4" stroke-width="1.44"/>
<rect x="960" y="310" width="60" height="60" stroke="#3C52A4" stroke-width="1.44"/>
<rect x="420" y="370" width="60" height="60" stroke="#3C52A4" stroke-width="1.44"/>
<rect x="480" y="370" width="60" height="60" stroke="#3C52A4" stroke-width="1.44"/>
<rect x="540" y="370" width="60" height="60" stroke="#3C52A4" stroke-width="1.44"/>
<rect x="600" y="370" width="60" height="60" stroke="#3C52A4" stroke-width="1.44"/>
<rect x="660" y="370" width="60" height="60" stroke="#3C52A4" stroke-width="1.44"/>
<rect x="720" y="370" width="60" height="60" stroke="#3C52A4" stroke-width="1.44"/>
<rect x="780" y="370" width="60" height="60" stroke="#3C52A4" stroke-width="1.44"/>
<rect x="840" y="370" width="60" height="60" stroke="#3C52A4" stroke-width="1.44"/>
<rect x="900" y="370" width="60" height="60" stroke="#3C52A4" stroke-width="1.44"/>
<rect x="960" y="370" width="60" height="60" stroke="#3C52A4" stroke-width="1.44"/>
<rect x="420" y="430" width="60" height="60" stroke="#3C52A4" stroke-width="1.44"/>
<rect x="480" y="430" width="60" height="60" stroke="#3C52A4" stroke-width="1.44"/>
<rect x="540" y="430" width="60" height="60" stroke="#3C52A4" stroke-width="1.44"/>
<rect x="600" y="430" width="60" height="60" stroke="#3C52A4" stroke-width="1.44"/>
<rect x="660" y="430" width="60" height="60" stroke="#3C52A4" stroke-width="1.44"/>
<rect x="720" y="430" width="60" height="60" stroke="#3C52A4" stroke-width="1.44"/>
<rect x="780" y="430" width="60" height="60" stroke="#3C52A4" stroke-width="1.44"/>
<rect x="840" y="430" width="60" height="60" stroke="#3C52A4" stroke-width="1.44"/>
<rect x="900" y="430" width="60" height="60" stroke="#3C52A4" stroke-width="1.44"/>
<rect x="960" y="430" width="60" height="60" stroke="#3C52A4" stroke-width="1.44"/>
<rect x="420" y="490" width="60" height="60" stroke="#3C52A4" stroke-width="1.44"/>
<rect x="480" y="490" width="60" height="60" stroke="#3C52A4" stroke-width="1.44"/>
<rect x="540" y="490" width="60" height="60" stroke="#3C52A4" stroke-width="1.44"/>
<rect x="600" y="490" width="60" height="60" stroke="#3C52A4" stroke-width="1.44"/>
<rect x="660" y="490" width="60" height="60" stroke="#3C52A4" stroke-width="1.44"/>
<rect x="720" y="490" width="60" height="60" stroke="#3C52A4" stroke-width="1.44"/>
<rect x="780" y="490" width="60" height="60" stroke="#3C52A4" stroke-width="1.44"/>
<rect x="840" y="490" width="60" height="60" stroke="#3C52A4" stroke-width="1.44"/>
<rect x="900" y="490" width="60" height="60" stroke="#3C52A4" stroke-width="1.44"/>
<rect x="960" y="490" width="60" height="60" stroke="#3C52A4" stroke-width="1.44"/>
<rect x="420" y="550" width="60" height="60" stroke="#3C52A4" stroke-width="1.44"/>
<rect x="480" y="550" width="60" height="60" stroke="#3C52A4" stroke-width="1.44"/>
<rect x="540" y="550" width="60" height="60" stroke="#3C52A4" stroke-width="1.44"/>
<rect x="600" y="550" width="60" height="60" stroke="#3C52A4" stroke-width="1.44"/>
<rect x="660" y="550" width="60" height="60" stroke="#3C52A4" stroke-width="1.44"/>
<rect x="720" y="550" width="60" height="60" stroke="#3C52A4" stroke-width="1.44"/>
<rect x="780" y="550" width="60" height="60" stroke="#3C52A4" stroke-width="1.44"/>
<rect x="840" y="550" width="60" height="60" stroke="#3C52A4" stroke-width="1.44"/>
<rect x="900" y="550" width="60" height="60" stroke="#3C52A4" stroke-width="1.44"/>
<rect x="960" y="550" width="60" height="60" stroke="#3C52A4" stroke-width="1.44"/>
</g>
<rect x="419.52" y="9.52" width="600.96" height="600.96" fill="url(#paint0_radial_785_1204)" stroke="white" stroke-width="0.96"/>
<g opacity="0.8">
<g opacity="0.1">
<rect x="-1" y="10" width="60" height="60" stroke="#3C52A4" stroke-width="1.44"/>
<rect x="59" y="10" width="60" height="60" stroke="#3C52A4" stroke-width="1.44"/>
<rect x="119" y="10" width="60" height="60" stroke="#3C52A4" stroke-width="1.44"/>
<rect x="179" y="10" width="60" height="60" stroke="#3C52A4" stroke-width="1.44"/>
<rect x="239" y="10" width="60" height="60" stroke="#3C52A4" stroke-width="1.44"/>
<rect x="299" y="10" width="60" height="60" stroke="#3C52A4" stroke-width="1.44"/>
<rect x="359" y="10" width="60" height="60" stroke="#3C52A4" stroke-width="1.44"/>
<rect x="419" y="10" width="60" height="60" stroke="#3C52A4" stroke-width="1.44"/>
<rect x="479" y="10" width="60" height="60" stroke="#3C52A4" stroke-width="1.44"/>
<rect x="539" y="10" width="60" height="60" stroke="#3C52A4" stroke-width="1.44"/>
<rect x="-1" y="70" width="60" height="60" stroke="#3C52A4" stroke-width="1.44"/>
<rect x="59" y="70" width="60" height="60" stroke="#3C52A4" stroke-width="1.44"/>
<rect x="119" y="70" width="60" height="60" stroke="#3C52A4" stroke-width="1.44"/>
<rect x="179" y="70" width="60" height="60" stroke="#3C52A4" stroke-width="1.44"/>
<rect x="239" y="70" width="60" height="60" stroke="#3C52A4" stroke-width="1.44"/>
<rect x="299" y="70" width="60" height="60" stroke="#3C52A4" stroke-width="1.44"/>
<rect x="359" y="70" width="60" height="60" stroke="#3C52A4" stroke-width="1.44"/>
<rect x="419" y="70" width="60" height="60" stroke="#3C52A4" stroke-width="1.44"/>
<rect x="479" y="70" width="60" height="60" stroke="#3C52A4" stroke-width="1.44"/>
<rect x="539" y="70" width="60" height="60" stroke="#3C52A4" stroke-width="1.44"/>
<rect x="-1" y="130" width="60" height="60" stroke="#3C52A4" stroke-width="1.44"/>
<rect x="59" y="130" width="60" height="60" stroke="#3C52A4" stroke-width="1.44"/>
<rect x="119" y="130" width="60" height="60" stroke="#3C52A4" stroke-width="1.44"/>
<rect x="179" y="130" width="60" height="60" stroke="#3C52A4" stroke-width="1.44"/>
<rect x="239" y="130" width="60" height="60" stroke="#3C52A4" stroke-width="1.44"/>
<rect x="299" y="130" width="60" height="60" stroke="#3C52A4" stroke-width="1.44"/>
<rect x="359" y="130" width="60" height="60" stroke="#3C52A4" stroke-width="1.44"/>
<rect x="419" y="130" width="60" height="60" stroke="#3C52A4" stroke-width="1.44"/>
<rect x="479" y="130" width="60" height="60" stroke="#3C52A4" stroke-width="1.44"/>
<rect x="539" y="130" width="60" height="60" stroke="#3C52A4" stroke-width="1.44"/>
<rect x="-1" y="190" width="60" height="60" stroke="#3C52A4" stroke-width="1.44"/>
<rect x="59" y="190" width="60" height="60" stroke="#3C52A4" stroke-width="1.44"/>
<rect x="119" y="190" width="60" height="60" stroke="#3C52A4" stroke-width="1.44"/>
<rect x="179" y="190" width="60" height="60" stroke="#3C52A4" stroke-width="1.44"/>
<rect x="239" y="190" width="60" height="60" stroke="#3C52A4" stroke-width="1.44"/>
<rect x="299" y="190" width="60" height="60" stroke="#3C52A4" stroke-width="1.44"/>
<rect x="359" y="190" width="60" height="60" stroke="#3C52A4" stroke-width="1.44"/>
<rect x="419" y="190" width="60" height="60" stroke="#3C52A4" stroke-width="1.44"/>
<rect x="479" y="190" width="60" height="60" stroke="#3C52A4" stroke-width="1.44"/>
<rect x="539" y="190" width="60" height="60" stroke="#3C52A4" stroke-width="1.44"/>
<rect x="-1" y="250" width="60" height="60" stroke="#3C52A4" stroke-width="1.44"/>
<rect x="59" y="250" width="60" height="60" stroke="#3C52A4" stroke-width="1.44"/>
<rect x="119" y="250" width="60" height="60" stroke="#3C52A4" stroke-width="1.44"/>
<rect x="179" y="250" width="60" height="60" stroke="#3C52A4" stroke-width="1.44"/>
<rect x="239" y="250" width="60" height="60" stroke="#3C52A4" stroke-width="1.44"/>
<rect x="299" y="250" width="60" height="60" stroke="#3C52A4" stroke-width="1.44"/>
<rect x="359" y="250" width="60" height="60" stroke="#3C52A4" stroke-width="1.44"/>
<rect x="419" y="250" width="60" height="60" stroke="#3C52A4" stroke-width="1.44"/>
<rect x="479" y="250" width="60" height="60" stroke="#3C52A4" stroke-width="1.44"/>
<rect x="539" y="250" width="60" height="60" stroke="#3C52A4" stroke-width="1.44"/>
<rect x="-1" y="310" width="60" height="60" stroke="#3C52A4" stroke-width="1.44"/>
<rect x="59" y="310" width="60" height="60" stroke="#3C52A4" stroke-width="1.44"/>
<rect x="119" y="310" width="60" height="60" stroke="#3C52A4" stroke-width="1.44"/>
<rect x="179" y="310" width="60" height="60" stroke="#3C52A4" stroke-width="1.44"/>
<rect x="239" y="310" width="60" height="60" stroke="#3C52A4" stroke-width="1.44"/>
<rect x="299" y="310" width="60" height="60" stroke="#3C52A4" stroke-width="1.44"/>
<rect x="359" y="310" width="60" height="60" stroke="#3C52A4" stroke-width="1.44"/>
<rect x="419" y="310" width="60" height="60" stroke="#3C52A4" stroke-width="1.44"/>
<rect x="479" y="310" width="60" height="60" stroke="#3C52A4" stroke-width="1.44"/>
<rect x="539" y="310" width="60" height="60" stroke="#3C52A4" stroke-width="1.44"/>
<rect x="-1" y="370" width="60" height="60" stroke="#3C52A4" stroke-width="1.44"/>
<rect x="59" y="370" width="60" height="60" stroke="#3C52A4" stroke-width="1.44"/>
<rect x="119" y="370" width="60" height="60" stroke="#3C52A4" stroke-width="1.44"/>
<rect x="179" y="370" width="60" height="60" stroke="#3C52A4" stroke-width="1.44"/>
<rect x="239" y="370" width="60" height="60" stroke="#3C52A4" stroke-width="1.44"/>
<rect x="299" y="370" width="60" height="60" stroke="#3C52A4" stroke-width="1.44"/>
<rect x="359" y="370" width="60" height="60" stroke="#3C52A4" stroke-width="1.44"/>
<rect x="419" y="370" width="60" height="60" stroke="#3C52A4" stroke-width="1.44"/>
<rect x="479" y="370" width="60" height="60" stroke="#3C52A4" stroke-width="1.44"/>
<rect x="539" y="370" width="60" height="60" stroke="#3C52A4" stroke-width="1.44"/>
<rect x="-1" y="430" width="60" height="60" stroke="#3C52A4" stroke-width="1.44"/>
<rect x="59" y="430" width="60" height="60" stroke="#3C52A4" stroke-width="1.44"/>
<rect x="119" y="430" width="60" height="60" stroke="#3C52A4" stroke-width="1.44"/>
<rect x="179" y="430" width="60" height="60" stroke="#3C52A4" stroke-width="1.44"/>
<rect x="239" y="430" width="60" height="60" stroke="#3C52A4" stroke-width="1.44"/>
<rect x="299" y="430" width="60" height="60" stroke="#3C52A4" stroke-width="1.44"/>
<rect x="359" y="430" width="60" height="60" stroke="#3C52A4" stroke-width="1.44"/>
<rect x="419" y="430" width="60" height="60" stroke="#3C52A4" stroke-width="1.44"/>
<rect x="479" y="430" width="60" height="60" stroke="#3C52A4" stroke-width="1.44"/>
<rect x="539" y="430" width="60" height="60" stroke="#3C52A4" stroke-width="1.44"/>
<rect x="-1" y="490" width="60" height="60" stroke="#3C52A4" stroke-width="1.44"/>
<rect x="59" y="490" width="60" height="60" stroke="#3C52A4" stroke-width="1.44"/>
<rect x="119" y="490" width="60" height="60" stroke="#3C52A4" stroke-width="1.44"/>
<rect x="179" y="490" width="60" height="60" stroke="#3C52A4" stroke-width="1.44"/>
<rect x="239" y="490" width="60" height="60" stroke="#3C52A4" stroke-width="1.44"/>
<rect x="299" y="490" width="60" height="60" stroke="#3C52A4" stroke-width="1.44"/>
<rect x="359" y="490" width="60" height="60" stroke="#3C52A4" stroke-width="1.44"/>
<rect x="419" y="490" width="60" height="60" stroke="#3C52A4" stroke-width="1.44"/>
<rect x="479" y="490" width="60" height="60" stroke="#3C52A4" stroke-width="1.44"/>
<rect x="539" y="490" width="60" height="60" stroke="#3C52A4" stroke-width="1.44"/>
<rect x="-1" y="550" width="60" height="60" stroke="#3C52A4" stroke-width="1.44"/>
<rect x="59" y="550" width="60" height="60" stroke="#3C52A4" stroke-width="1.44"/>
<rect x="119" y="550" width="60" height="60" stroke="#3C52A4" stroke-width="1.44"/>
<rect x="179" y="550" width="60" height="60" stroke="#3C52A4" stroke-width="1.44"/>
<rect x="239" y="550" width="60" height="60" stroke="#3C52A4" stroke-width="1.44"/>
<rect x="299" y="550" width="60" height="60" stroke="#3C52A4" stroke-width="1.44"/>
<rect x="359" y="550" width="60" height="60" stroke="#3C52A4" stroke-width="1.44"/>
<rect x="419" y="550" width="60" height="60" stroke="#3C52A4" stroke-width="1.44"/>
<rect x="479" y="550" width="60" height="60" stroke="#3C52A4" stroke-width="1.44"/>
<rect x="539" y="550" width="60" height="60" stroke="#3C52A4" stroke-width="1.44"/>
</g>
<path d="M-1 9.52H-1.48V10V610V610.48H-1H599H599.48V610V10V9.52H599H-1Z" fill="url(#paint1_radial_785_1204)" stroke="white" stroke-width="0.96"/>
</g>
</g>
</g>
<defs>
<radialGradient id="paint0_radial_785_1204" cx="0" cy="0" r="1" gradientUnits="userSpaceOnUse" gradientTransform="translate(720 310) rotate(90) scale(300)">
<stop offset="0.575" stop-color="#F7F9FB" stop-opacity="0"/>
<stop offset="1" stop-color="#F7F9FB"/>
</radialGradient>
<radialGradient id="paint1_radial_785_1204" cx="0" cy="0" r="1" gradientUnits="userSpaceOnUse" gradientTransform="translate(299 310) rotate(90) scale(300)">
<stop offset="0.575" stop-color="#F7F9FB" stop-opacity="0"/>
<stop offset="1" stop-color="#F7F9FB"/>
</radialGradient>
<clipPath id="clip0_785_1204">
<rect width="1440" height="621" fill="white"/>
</clipPath>
</defs>
</svg>
