<svg width="52" height="52" viewBox="0 0 52 52" fill="none" xmlns="http://www.w3.org/2000/svg">
<path d="M49.2662 3.72266H2.73376C1.22637 3.72266 0 4.94902 0 6.45652V45.5438C0 47.0511 1.22637 48.2775 2.73376 48.2775H49.2662C50.7736 48.2775 52 47.0511 52 45.5438V6.45652C52 4.94902 50.7736 3.72266 49.2662 3.72266ZM12.9128 5.4676H46.5325V7.44523H12.9128V5.4676ZM9.19019 5.4676H11.1678V7.44523H9.19019V5.4676ZM5.46752 5.4676H7.44514V7.44523H5.46752V5.4676ZM1.74495 6.45652C1.74495 5.91123 2.18847 5.4677 2.73376 5.4677H3.72257V7.44533H1.74495V6.45652ZM50.2551 45.5438C50.2551 46.089 49.8115 46.5326 49.2662 46.5326H2.73376C2.18847 46.5326 1.74495 46.089 1.74495 45.5438V9.19027H50.2551V45.5438ZM50.2551 7.44523H48.2774V5.4676H49.2662C49.8115 5.4676 50.2551 5.91113 50.2551 6.45641V7.44523Z" fill="#3D3D3D"/>
<path d="M47.405 11.1677H4.59518C4.11337 11.1677 3.72266 11.5583 3.72266 12.0402C3.72266 12.5221 4.11327 12.9128 4.59518 12.9128H47.405C47.8868 12.9128 48.2775 12.5222 48.2775 12.0402C48.2775 11.5583 47.8868 11.1677 47.405 11.1677Z" fill="#3D3D3D"/>
<path d="M33.4454 16.7517H31.584C30.781 16.7517 30.0995 17.2796 29.8669 18.0063C22.3819 22.3752 14.2742 23.1149 11.9405 23.2376C10.9854 23.288 10.2373 24.0785 10.2373 25.0377V28.8235C10.2373 29.7827 10.9854 30.5732 11.9405 30.6235C12.4056 30.648 13.101 30.6972 13.9741 30.7946L16.5957 40.4329C16.8087 41.216 17.5242 41.7628 18.3357 41.7628H21.3437C21.3446 41.7628 21.3455 41.763 21.3465 41.763C21.3476 41.763 21.3489 41.7628 21.3499 41.7628H22.2776C22.7595 41.7628 23.1502 41.3722 23.1502 40.8903C23.1502 40.4084 22.7596 40.0177 22.2776 40.0177H22.0135L19.7834 31.8409C22.8632 32.6083 26.4306 33.849 29.8669 35.8547C30.0996 36.5815 30.7812 37.1093 31.584 37.1093H33.4454C34.4396 37.1093 35.2485 36.3005 35.2485 35.3062V18.5544C35.2484 17.5606 34.4395 16.7517 33.4454 16.7517ZM13.9599 29.0383C13.1396 28.9506 12.4823 28.9047 12.0321 28.8809C12.0027 28.8794 11.9822 28.8558 11.9822 28.8235V25.0377C11.9822 25.0055 12.0028 24.9818 12.0321 24.9802C12.4823 24.9564 13.1396 24.9105 13.9599 24.8228V29.0383ZM20.2044 40.0178H18.3355C18.3093 40.0178 18.2861 40.0002 18.2793 39.9749L15.8508 31.0461C16.4739 31.1434 17.1451 31.2618 17.8557 31.4059L20.2044 40.0178ZM33.5034 35.3065C33.5034 35.3386 33.4773 35.3647 33.4452 35.3647H31.584C31.5519 35.3647 31.5258 35.3386 31.5258 35.3065V25.0695C31.5258 24.5877 31.1352 24.1969 30.6533 24.1969C30.1715 24.1969 29.7808 24.5876 29.7808 25.0695V33.8055C24.6147 31.0071 19.2945 29.7893 15.7047 29.2606V24.6008C19.2945 24.072 24.6148 22.8542 29.7808 20.0558V21.3469C29.7808 21.8287 30.1714 22.2194 30.6533 22.2194C31.1351 22.2194 31.5258 21.8288 31.5258 21.3469V18.5548C31.5258 18.5228 31.5519 18.4967 31.584 18.4967H33.4454C33.4774 18.4967 33.5035 18.5228 33.5035 18.5548V35.3065H33.5034Z" fill="#3D3D3D"/>
<path d="M43.6825 26.0581H38.0986C37.6168 26.0581 37.2261 26.4487 37.2261 26.9306C37.2261 27.4124 37.6167 27.8032 38.0986 27.8032H43.6825C44.1643 27.8032 44.555 27.4125 44.555 26.9306C44.555 26.4487 44.1643 26.0581 43.6825 26.0581Z" fill="#3D3D3D"/>
<path d="M42.6012 20.9566C42.3858 20.5256 41.8617 20.3509 41.4307 20.5664L37.7081 22.4278C37.2771 22.6433 37.1024 23.1672 37.3179 23.5983C37.4708 23.9039 37.7788 24.0807 38.0989 24.0807C38.23 24.0807 38.3631 24.051 38.4884 23.9885L42.211 22.1271C42.642 21.9116 42.8167 21.3877 42.6012 20.9566Z" fill="#3D3D3D"/>
<path d="M42.211 31.7341L38.4884 29.8728C38.0575 29.6574 37.5334 29.832 37.3179 30.263C37.1024 30.694 37.2771 31.2181 37.7081 31.4335L41.4307 33.2948C41.556 33.3574 41.689 33.3871 41.8202 33.3871C42.1402 33.3871 42.4483 33.2102 42.6012 32.9045C42.8167 32.4736 42.642 31.9495 42.211 31.7341Z" fill="#3D3D3D"/>
</svg>
