<svg width="78" height="38" viewBox="0 0 78 38" fill="none" xmlns="http://www.w3.org/2000/svg">
<path d="M-0.00014562 9.83428L11.5134 10.7131L6.51766 0.30267L-0.00014562 9.83428ZM46.1542 9.07257L46.5649 8.16079L46.1542 9.07257ZM76.4094 36.8236C77.3572 36.5048 77.357 36.5042 77.3568 36.5036C77.3567 36.5033 77.3564 36.5026 77.3562 36.502C77.3558 36.5008 77.3553 36.4993 77.3548 36.4976C77.3536 36.4942 77.3521 36.4897 77.3502 36.4843C77.3464 36.4735 77.3412 36.4586 77.3345 36.4398C77.3211 36.4023 77.3018 36.3491 77.2761 36.281C77.2247 36.1447 77.1477 35.9485 77.042 35.6979C76.8304 35.1967 76.5035 34.4777 76.0347 33.5846C75.0971 31.7982 73.5916 29.3149 71.3059 26.4846C66.7312 20.82 59.0439 13.7817 46.5649 8.16079L45.7435 9.98434C57.9208 15.4694 65.3611 22.3067 69.7499 27.7411C71.9459 30.4604 73.3812 32.8324 74.2639 34.5141C74.7052 35.3549 75.0084 36.0231 75.1993 36.4756C75.2948 36.7018 75.3623 36.8741 75.4049 36.9871C75.4262 37.0435 75.4413 37.0852 75.4506 37.1113C75.4553 37.1244 75.4585 37.1336 75.4603 37.1388C75.4612 37.1414 75.4618 37.143 75.462 37.1436C75.4621 37.1439 75.4621 37.144 75.462 37.1438C75.462 37.1437 75.4619 37.1434 75.4619 37.1433C75.4617 37.1429 75.4616 37.1425 76.4094 36.8236ZM46.5649 8.16079C29.4278 0.441658 15.8975 2.26776 7.79465 4.99292L8.4322 6.88858C16.1234 4.30188 29.1263 2.49938 45.7435 9.98434L46.5649 8.16079Z" fill="black"/>
</svg>
