<svg width="52" height="52" viewBox="0 0 52 52" fill="none" xmlns="http://www.w3.org/2000/svg">
<g clip-path="url(#clip0_902_620)">
<rect width="51.25" height="51.25" transform="translate(0.375 0.375)" fill="white"/>
<path d="M37.5204 0.375H15.3121C13.433 0.375 11.8955 1.9125 11.8955 3.79163V48.2083C11.8955 50.0874 13.433 51.6249 15.3121 51.6249H37.5205C39.3996 51.6249 40.9371 50.0874 40.9371 48.2083V3.79163C40.9371 1.9125 39.3996 0.375 37.5204 0.375ZM39.2288 48.2084C39.2288 49.148 38.46 49.9167 37.5204 49.9167H15.3121C14.3725 49.9167 13.6038 49.148 13.6038 48.2084V3.79163C13.6038 2.85202 14.3725 2.08327 15.3121 2.08327H37.5205C38.4601 2.08327 39.2289 2.85202 39.2289 3.79163V48.2084H39.2288Z" fill="#3D3D3D"/>
<path d="M11.8955 5.5V44.7916H40.9371V5.5H11.8955ZM39.2289 43.0834H13.6039V7.20837H39.2289V43.0834Z" fill="#3D3D3D"/>
<path d="M29.833 2.9375H25.5621C25.0496 2.9375 24.708 3.27913 24.708 3.79163C24.708 4.30413 25.0496 4.64577 25.5621 4.64577H29.833C30.3455 4.64577 30.6871 4.30413 30.6871 3.79163C30.6872 3.27913 30.3455 2.9375 29.833 2.9375Z" fill="#3D3D3D"/>
<path d="M22.9998 2.9375H22.1456C21.6331 2.9375 21.2915 3.27913 21.2915 3.79163C21.2915 4.30413 21.6331 4.64577 22.1456 4.64577H22.9998C23.5123 4.64577 23.8539 4.30413 23.8539 3.79163C23.8539 3.27913 23.5123 2.9375 22.9998 2.9375Z" fill="#3D3D3D"/>
<path d="M11.8956 8.0625C11.3831 8.0625 11.0415 8.40413 11.0415 8.91663V9.77077C11.0415 10.2833 11.3831 10.6249 11.8956 10.6249C12.4081 10.6249 12.7498 10.2833 12.7498 9.77077V8.91663C12.7499 8.40413 12.4081 8.0625 11.8956 8.0625Z" fill="#3D3D3D"/>
<path d="M11.8956 11.4792C11.3831 11.4792 11.0415 11.8209 11.0415 12.3334V13.1876C11.0415 13.7001 11.3831 14.0417 11.8956 14.0417C12.4081 14.0417 12.7498 13.7001 12.7498 13.1876V12.3335C12.7499 11.821 12.4081 11.4792 11.8956 11.4792Z" fill="#3D3D3D"/>
<path d="M11.8956 14.8958C11.3831 14.8958 11.0415 15.2374 11.0415 15.7499V16.604C11.0415 17.1165 11.3831 17.4582 11.8956 17.4582C12.4081 17.4582 12.7498 17.1165 12.7498 16.604V15.7499C12.7499 15.2374 12.4081 14.8958 11.8956 14.8958Z" fill="#3D3D3D"/>
<path d="M26.4166 43.9375C24.5375 43.9375 23 45.475 23 47.3541C23 49.2333 24.5375 50.7708 26.4166 50.7708C28.2958 50.7708 29.8333 49.2333 29.8333 47.3541C29.8333 45.475 28.2958 43.9375 26.4166 43.9375ZM26.4166 49.0625C25.477 49.0625 24.7083 48.2938 24.7083 47.3541C24.7083 46.4145 25.477 45.6458 26.4166 45.6458C27.3563 45.6458 28.125 46.4145 28.125 47.3541C28.125 48.2938 27.3563 49.0625 26.4166 49.0625Z" fill="#3D3D3D"/>
<path d="M19.5831 16.6042C19.0706 16.6042 18.729 16.9459 18.729 17.4584V22.5834C18.729 23.0959 19.0706 23.4375 19.5831 23.4375C20.0956 23.4375 20.4373 23.0959 20.4373 22.5834V17.4584C20.4374 16.946 20.0956 16.6042 19.5831 16.6042Z" fill="#3D3D3D"/>
<path d="M22.1456 14.0417C20.2665 14.0417 18.729 15.5792 18.729 17.4584C18.729 17.9709 19.0706 18.3125 19.5831 18.3125C20.0956 18.3125 20.4373 17.9709 20.4373 17.4584C20.4373 16.5188 21.206 15.75 22.1456 15.75C22.6581 15.75 22.9998 15.4084 22.9998 14.8959C22.9999 14.3835 22.6581 14.0417 22.1456 14.0417Z" fill="#3D3D3D"/>
<path d="M19.5831 21.7292C19.0706 21.7292 18.729 22.0709 18.729 22.5834C18.729 23.523 17.9603 24.2917 17.0206 24.2917C16.5081 24.2917 16.1665 24.6334 16.1665 25.1459C16.1665 25.6584 16.5081 26 17.0206 26C18.8998 26 20.4373 24.4625 20.4373 22.5834C20.4374 22.071 20.0956 21.7292 19.5831 21.7292Z" fill="#3D3D3D"/>
<path d="M19.5831 26.8542C19.0706 26.8542 18.729 27.1959 18.729 27.7084V32.8334C18.729 33.3459 19.0706 33.6875 19.5831 33.6875C20.0956 33.6875 20.4373 33.3459 20.4373 32.8334V27.7084C20.4374 27.196 20.0956 26.8542 19.5831 26.8542Z" fill="#3D3D3D"/>
<path d="M17.0206 24.2917C16.5081 24.2917 16.1665 24.6334 16.1665 25.1459C16.1665 25.6584 16.5081 26 17.0206 26C17.9603 26 18.729 26.7688 18.729 27.7084C18.729 28.2209 19.0706 28.5625 19.5831 28.5625C20.0956 28.5625 20.4373 28.2209 20.4373 27.7084C20.4374 25.8292 18.8999 24.2917 17.0206 24.2917Z" fill="#3D3D3D"/>
<path d="M22.1456 34.5417C21.206 34.5417 20.4373 33.773 20.4373 32.8334C20.4373 32.3209 20.0956 31.9792 19.5831 31.9792C19.0706 31.9792 18.729 32.3209 18.729 32.8334C18.729 34.7125 20.2665 36.25 22.1456 36.25C22.6581 36.25 22.9998 35.9084 22.9998 35.3959C22.9998 34.8834 22.6581 34.5417 22.1456 34.5417Z" fill="#3D3D3D"/>
<path d="M33.2496 16.6042C32.7371 16.6042 32.3955 16.9459 32.3955 17.4584V22.5834C32.3955 23.0959 32.7371 23.4375 33.2496 23.4375C33.7621 23.4375 34.1038 23.0959 34.1038 22.5834V17.4584C34.1038 16.946 33.7621 16.6042 33.2496 16.6042Z" fill="#3D3D3D"/>
<path d="M30.6871 14.0417C30.1746 14.0417 29.833 14.3834 29.833 14.8959C29.833 15.4084 30.1746 15.75 30.6871 15.75C31.6268 15.75 32.3955 16.5188 32.3955 17.4584C32.3955 17.9709 32.7371 18.3125 33.2496 18.3125C33.7621 18.3125 34.1038 17.9709 34.1038 17.4584C34.1038 15.5792 32.5663 14.0417 30.6871 14.0417Z" fill="#3D3D3D"/>
<path d="M35.8121 24.2917C34.8725 24.2917 34.1038 23.523 34.1038 22.5834C34.1038 22.0709 33.7621 21.7292 33.2496 21.7292C32.7371 21.7292 32.3955 22.0709 32.3955 22.5834C32.3955 24.4625 33.933 26 35.8121 26C36.3246 26 36.6663 25.6584 36.6663 25.1459C36.6663 24.6334 36.3246 24.2917 35.8121 24.2917Z" fill="#3D3D3D"/>
<path d="M33.2496 26.8542C32.7371 26.8542 32.3955 27.1959 32.3955 27.7084V32.8334C32.3955 33.3459 32.7371 33.6875 33.2496 33.6875C33.7621 33.6875 34.1038 33.3459 34.1038 32.8334V27.7084C34.1038 27.196 33.7621 26.8542 33.2496 26.8542Z" fill="#3D3D3D"/>
<path d="M35.8121 24.2917C33.933 24.2917 32.3955 25.8292 32.3955 27.7084C32.3955 28.2209 32.7371 28.5625 33.2496 28.5625C33.7621 28.5625 34.1038 28.2209 34.1038 27.7084C34.1038 26.7688 34.8725 26 35.8121 26C36.3246 26 36.6663 25.6584 36.6663 25.1459C36.6663 24.6334 36.3246 24.2917 35.8121 24.2917Z" fill="#3D3D3D"/>
<path d="M33.2496 31.9792C32.7371 31.9792 32.3955 32.3209 32.3955 32.8334C32.3955 33.773 31.6268 34.5417 30.6871 34.5417C30.1746 34.5417 29.833 34.8834 29.833 35.3959C29.833 35.9084 30.1746 36.25 30.6871 36.25C32.5663 36.25 34.1038 34.7125 34.1038 32.8334C34.1038 32.321 33.7621 31.9792 33.2496 31.9792Z" fill="#3D3D3D"/>
<path d="M8.47914 3.79153C7.02703 3.79153 5.91664 2.68114 5.91664 1.22903C5.91664 0.118644 4.20828 0.118644 4.20828 1.22903C4.20828 2.68114 3.09789 3.79153 1.64578 3.79153C0.535392 3.79153 0.535392 5.4999 1.64578 5.4999C3.09789 5.4999 4.20828 6.61028 4.20828 8.0624C4.20828 9.17278 5.91664 9.17278 5.91664 8.0624C5.91664 6.61028 7.02703 5.4999 8.47914 5.4999C9.58953 5.4999 9.58953 3.79153 8.47914 3.79153ZM5.06251 5.4999C4.80626 5.15826 4.55001 4.90201 4.20838 4.64576C4.55001 4.38951 4.80626 4.13326 5.06251 3.79163C5.31876 4.13326 5.57501 4.38951 5.91664 4.64576C5.57501 4.90201 5.31876 5.15826 5.06251 5.4999Z" fill="#3D3D3D"/>
<path d="M46.9166 12.3333C46.4041 12.3333 46.0625 12.6749 46.0625 13.1874V16.604C46.0625 17.1165 46.4041 17.4582 46.9166 17.4582C47.4291 17.4582 47.7708 17.1165 47.7708 16.604V13.1874C47.7708 12.6749 47.4291 12.3333 46.9166 12.3333Z" fill="#3D3D3D"/>
<path d="M48.6248 14.0417H45.2081C44.6956 14.0417 44.354 14.3834 44.354 14.8959C44.354 15.4084 44.6956 15.75 45.2081 15.75H48.6248C49.1373 15.75 49.4789 15.4084 49.4789 14.8959C49.4789 14.3835 49.1373 14.0417 48.6248 14.0417Z" fill="#3D3D3D"/>
<path d="M6.77064 37.1042C6.25814 37.1042 5.9165 37.4459 5.9165 37.9584C5.9165 38.4709 6.25814 38.8126 6.77064 38.8126C7.28314 38.8126 7.62477 38.471 7.62477 37.9585C7.62477 37.446 7.28314 37.1042 6.77064 37.1042Z" fill="#3D3D3D"/>
<path d="M2.49964 21.7292C1.98714 21.7292 1.64551 22.0709 1.64551 22.5834C1.64551 23.0959 1.98714 23.4375 2.49964 23.4375C3.01214 23.4375 3.35377 23.0959 3.35377 22.5834C3.35377 22.0709 3.01214 21.7292 2.49964 21.7292Z" fill="#3D3D3D"/>
<path d="M44.3541 30.2708C43.8416 30.2708 43.5 30.6124 43.5 31.1249C43.5 31.6374 43.8416 31.979 44.3541 31.979C44.8666 31.979 45.2083 31.6374 45.2083 31.1249C45.2083 30.6124 44.8666 30.2708 44.3541 30.2708Z" fill="#3D3D3D"/>
<path d="M50.3331 48.2083C49.8206 48.2083 49.479 48.5499 49.479 49.0624C49.479 49.5749 49.8206 49.9165 50.3331 49.9165C50.8456 49.9165 51.1873 49.5749 51.1873 49.0624C51.1873 48.5499 50.8456 48.2083 50.3331 48.2083Z" fill="#3D3D3D"/>
</g>
<defs>
<clipPath id="clip0_902_620">
<rect width="51.25" height="51.25" fill="white" transform="translate(0.375 0.375)"/>
</clipPath>
</defs>
</svg>
