<svg width="37" height="36" viewBox="0 0 37 36" fill="none" xmlns="http://www.w3.org/2000/svg">
<path d="M12.3615 16.5499C11.6219 16.5524 10.8955 16.7453 10.252 17.11C11.1579 14.7645 12.6605 12.6962 14.611 11.1099C14.7226 11.018 14.815 10.905 14.8829 10.7774C14.9509 10.6497 14.993 10.5099 15.0069 10.366C15.0209 10.2221 15.0063 10.0768 14.9641 9.93851C14.9219 9.80021 14.8529 9.67157 14.761 9.55995C14.6691 9.44833 14.5561 9.3559 14.4285 9.28795C14.3008 9.22 14.1611 9.17786 14.0172 9.16393C13.8733 9.15 13.7281 9.16456 13.5898 9.20677C13.4515 9.24899 13.3229 9.31802 13.2113 9.40995C9.21222 12.6599 7.43262 17.16 7.43262 19.95C7.43951 20.9364 7.73342 21.8996 8.27847 22.7218C8.82351 23.544 9.59611 24.1896 10.5019 24.5799C11.0882 24.864 11.7301 25.0143 12.3815 25.0199C12.9548 25.0478 13.5279 24.9589 14.0658 24.7587C14.6038 24.5584 15.0955 24.251 15.5111 23.855C15.9267 23.459 16.2576 22.9827 16.4837 22.455C16.7098 21.9272 16.8264 21.3591 16.8264 20.7849C16.8264 20.2108 16.7098 19.6427 16.4837 19.1149C16.2576 18.5872 15.9267 18.1109 15.5111 17.7149C15.0955 17.3189 14.6038 17.0115 14.0658 16.8112C13.5279 16.611 12.9548 16.5221 12.3815 16.5499H12.3615Z" fill="#D2DCFF"/>
<path d="M23.4992 16.55C22.7595 16.5516 22.0328 16.7445 21.3897 17.11C22.2953 14.767 23.7939 12.6995 25.7387 11.11C25.8604 11.0223 25.9629 10.9105 26.0398 10.7816C26.1168 10.6528 26.1665 10.5095 26.186 10.3607C26.2056 10.2119 26.1944 10.0607 26.1533 9.91633C26.1122 9.77198 26.042 9.63758 25.947 9.52139C25.852 9.40519 25.7343 9.30967 25.601 9.2407C25.4677 9.17173 25.3218 9.13077 25.1721 9.12034C25.0224 9.1099 24.8721 9.13022 24.7306 9.18004C24.589 9.22986 24.4592 9.30812 24.349 9.41002C20.3499 12.66 18.5703 17.16 18.5703 19.95C18.575 20.9253 18.8604 21.8787 19.3923 22.6962C19.9241 23.5136 20.68 24.1607 21.5696 24.56C22.1707 24.8524 22.8308 25.0029 23.4992 25C24.0725 25.0279 24.6456 24.939 25.1835 24.7388C25.7215 24.5385 26.2132 24.2311 26.6288 23.8351C27.0444 23.4391 27.3753 22.9628 27.6014 22.435C27.8275 21.9073 27.9441 21.3392 27.9441 20.765C27.9441 20.1909 27.8275 19.6227 27.6014 19.095C27.3753 18.5673 27.0444 18.091 26.6288 17.695C26.2132 17.299 25.7215 16.9915 25.1835 16.7913C24.6456 16.591 24.0725 16.5021 23.4992 16.53V16.55Z" fill="#D2DCFF"/>
</svg>
