<svg width="48" height="24" viewBox="0 0 48 24" fill="none" xmlns="http://www.w3.org/2000/svg">
<g clip-path="url(#clip0_1177_98)">
<path d="M41.2728 24.0001C41.2728 23.4451 41.3168 22.9801 41.2528 22.5311C41.2258 22.3401 41.0028 22.1351 40.8198 22.0201C39.9328 21.4571 38.9698 21.0071 38.1428 20.3611C35.4668 18.2691 33.8808 15.5151 33.7938 11.9371C33.7698 10.9221 34.1438 10.6671 34.9958 11.0641C37.4588 12.2061 40.1078 11.5361 41.5208 9.41408C43.0618 7.09808 42.8448 4.01408 40.9978 1.99208C38.6398 -0.58992 34.7578 -0.66792 32.0808 1.80008C30.4778 3.27808 29.7158 5.18608 29.5258 7.35708C28.8888 14.6281 32.5358 20.6221 39.1748 23.2551C39.8318 23.5151 40.5048 23.7291 41.2728 24.0001Z" fill="white"/>
</g>
<g clip-path="url(#clip1_1177_98)">
<path d="M17.2728 24.0001C17.2728 23.4451 17.3168 22.9801 17.2528 22.5311C17.2258 22.3401 17.0028 22.1351 16.8198 22.0201C15.9328 21.4571 14.9698 21.0071 14.1428 20.3611C11.4668 18.2691 9.88079 15.5151 9.79379 11.9371C9.76979 10.9221 10.1438 10.6671 10.9958 11.0641C13.4588 12.2061 16.1078 11.5361 17.5208 9.41408C19.0618 7.09808 18.8448 4.01408 16.9978 1.99208C14.6398 -0.58992 10.7578 -0.66792 8.08079 1.80008C6.47779 3.27808 5.71579 5.18608 5.52579 7.35708C4.88879 14.6281 8.53579 20.6221 15.1748 23.2551C15.8318 23.5151 16.5048 23.7291 17.2728 24.0001Z" fill="white"/>
</g>
<defs>
<clipPath id="clip0_1177_98">
<rect width="24" height="24" fill="white" transform="matrix(-1 0 0 1 48 0)"/>
</clipPath>
<clipPath id="clip1_1177_98">
<rect width="24" height="24" fill="white" transform="matrix(-1 0 0 1 24 0)"/>
</clipPath>
</defs>
</svg>
