<svg width="46" height="46" viewBox="0 0 46 46" fill="none" xmlns="http://www.w3.org/2000/svg">
<g clip-path="url(#clip0_902_970)">
<path d="M0 0V37.0968H46V0H0ZM44.5161 35.6129H1.48387V1.48387H44.5161V35.6129Z" fill="#3D3D3D"/>
<path d="M28.9355 2.96777H2.96777V19.2904H28.9355V2.96777ZM27.4516 17.8065H4.45164V4.45164H27.4516V17.8065Z" fill="#3D3D3D"/>
<path d="M43.0323 2.96777H30.4194V4.45164H43.0323V2.96777Z" fill="#3D3D3D"/>
<path d="M43.0323 5.93555H30.4194V7.41942H43.0323V5.93555Z" fill="#3D3D3D"/>
<path d="M43.0323 8.90332H30.4194V10.3872H43.0323V8.90332Z" fill="#3D3D3D"/>
<path d="M43.0323 11.8708H30.4194V13.3547H43.0323V11.8708Z" fill="#3D3D3D"/>
<path d="M43.0323 14.8386H30.4194V16.3225H43.0323V14.8386Z" fill="#3D3D3D"/>
<path d="M43.0323 17.8064H30.4194V19.2903H43.0323V17.8064Z" fill="#3D3D3D"/>
<path d="M15.5807 20.7742H2.96777V34.129H15.5807V20.7742ZM14.0968 32.6451H4.45164V22.258H14.0968V32.6451Z" fill="#3D3D3D"/>
<path d="M17.0645 34.129H28.9354V20.7742H17.0645V34.129ZM18.5483 22.258H27.4515V32.6451H18.5483V22.258Z" fill="#3D3D3D"/>
<path d="M43.0323 20.7742H30.4194V34.129H43.0323V20.7742ZM41.5485 32.6451H31.9033V22.258H41.5485V32.6451Z" fill="#3D3D3D"/>
<path d="M15.5808 16.3226C18.4446 16.3226 20.7743 13.993 20.7743 11.1291C20.7743 8.26522 18.4446 5.93555 15.5808 5.93555C12.7169 5.93555 10.3872 8.26522 10.3872 11.1291C10.3872 13.993 12.7169 16.3226 15.5808 16.3226ZM15.5808 7.41942C17.6263 7.41942 19.2904 9.08358 19.2904 11.1291C19.2904 13.1746 17.6263 14.8388 15.5808 14.8388C13.5352 14.8388 11.8711 13.1746 11.8711 11.1291C11.8711 9.08358 13.5352 7.41942 15.5808 7.41942Z" fill="#3D3D3D"/>
<path d="M42.2902 38.5806H7.22192L0.72998 42.2902L7.22192 45.9999H42.2902C44.3358 45.9999 45.9999 44.3358 45.9999 42.2902C45.9999 40.2447 44.3358 38.5806 42.2902 38.5806ZM7.41927 44.4033L3.72146 42.2902L7.41927 40.1772V44.4033ZM35.6128 44.5161H8.90314V40.0644H35.6128V44.5161ZM38.5806 44.5161H37.0967V40.0644H38.5806V44.5161ZM42.2902 44.5161H40.0644V40.0644H42.2902C43.5174 40.0644 44.516 41.0631 44.516 42.2902C44.516 43.5174 43.5174 44.5161 42.2902 44.5161Z" fill="#3D3D3D"/>
</g>
<defs>
<clipPath id="clip0_902_970">
<rect width="46" height="46" fill="white"/>
</clipPath>
</defs>
</svg>
