<svg width="10" height="17" viewBox="0 0 10 17" fill="none" xmlns="http://www.w3.org/2000/svg">
<path d="M5.36151 7.54995C4.62194 7.55245 3.89546 7.7453 3.25198 8.10995C4.15793 5.76446 5.6605 3.69623 7.611 2.10995C7.7226 2.01802 7.815 1.90501 7.88294 1.77737C7.95087 1.64972 7.993 1.50995 8.00693 1.36602C8.02085 1.22208 8.0063 1.07682 7.9641 0.938515C7.9219 0.80021 7.85287 0.671573 7.76097 0.55995C7.66906 0.448326 7.55608 0.355901 7.42846 0.287952C7.30085 0.220004 7.1611 0.177863 7.0172 0.163934C6.8733 0.150005 6.72807 0.164562 6.5898 0.206774C6.45152 0.248985 6.32292 0.318024 6.21132 0.409949C2.21222 3.65995 0.432617 8.15995 0.432617 10.95C0.439508 11.9364 0.73342 12.8996 1.27847 13.7218C1.82351 14.544 2.59611 15.1896 3.50193 15.5799C4.08816 15.864 4.73014 16.0143 5.3815 16.0199C5.95483 16.0478 6.52785 15.9589 7.06582 15.7587C7.60378 15.5584 8.09548 15.251 8.5111 14.855C8.92672 14.459 9.25761 13.9827 9.48369 13.455C9.70978 12.9272 9.82635 12.3591 9.82635 11.7849C9.82635 11.2108 9.70978 10.6427 9.48369 10.1149C9.25761 9.5872 8.92672 9.1109 8.5111 8.7149C8.09548 8.3189 7.60378 8.01146 7.06582 7.81121C6.52785 7.61096 5.95483 7.52207 5.3815 7.54995H5.36151Z" fill="#D2DCFF"/>
</svg>
