<svg width="51" height="51" viewBox="0 0 51 51" fill="none" xmlns="http://www.w3.org/2000/svg">
<path d="M17 10.625H7.4375V12.75H17V10.625Z" fill="#3D3D3D"/>
<path d="M24.4375 10.625H19.125V12.75H24.4375V10.625Z" fill="#3D3D3D"/>
<path d="M17 26.5625H7.4375V28.6875H17V26.5625Z" fill="#3D3D3D"/>
<path d="M24.4375 26.5625H19.125V28.6875H24.4375V26.5625Z" fill="#3D3D3D"/>
<path d="M13.8125 21.25H7.4375V23.375H13.8125V21.25Z" fill="#3D3D3D"/>
<path d="M34 21.25H30.8125V23.375H34V21.25Z" fill="#3D3D3D"/>
<path d="M28.6875 21.25H15.9375V23.375H28.6875V21.25Z" fill="#3D3D3D"/>
<path d="M25.5 15.9375H21.25V18.0625H25.5V15.9375Z" fill="#3D3D3D"/>
<path d="M19.125 15.9375H7.4375V18.0625H19.125V15.9375Z" fill="#3D3D3D"/>
<path d="M43.5625 15.9375H27.625V18.0625H43.5625V15.9375Z" fill="#3D3D3D"/>
<path d="M23.375 31.875H7.4375V34H23.375V31.875Z" fill="#3D3D3D"/>
<path d="M40.5952 25.28L39.0928 26.7825L42.0603 29.75L39.0928 32.7175L40.5952 34.22L45.0652 29.75L40.5952 25.28Z" fill="#3D3D3D"/>
<path d="M32.095 26.7825L30.5925 25.28L26.1226 29.75L30.5925 34.22L32.095 32.7175L29.1274 29.75L32.095 26.7825Z" fill="#3D3D3D"/>
<path d="M36.7294 24.0532L32.4829 34.6792L34.4562 35.4678L38.7027 24.8418L36.7294 24.0532Z" fill="#3D3D3D"/>
<path d="M48.875 37.1875V5.3125H2.125V37.1875H0V41.7592L2.6189 45.6875H48.3811L51 41.7592V37.1875H48.875ZM4.25 7.4375H46.75V37.1875H4.25V7.4375ZM48.875 41.1158L47.2439 43.5625H3.7561L2.125 41.1158V39.3125H48.875V41.1158Z" fill="#3D3D3D"/>
<path d="M30.8125 40.375H28.6875V42.5H30.8125V40.375Z" fill="#3D3D3D"/>
<path d="M26.5625 40.375H24.4375V42.5H26.5625V40.375Z" fill="#3D3D3D"/>
<path d="M22.3125 40.375H20.1875V42.5H22.3125V40.375Z" fill="#3D3D3D"/>
</svg>
